<svg xmlns="http://www.w3.org/2000/svg" xml:space="preserve" viewBox="0 0 32 32"><path fill="#f7931e" d="M0 0h32v32H0z"/><path fill="#ffffff" d="M1.23 18.44c.71.36 1.8.73 2.92.73 1.21 0 1.85-.5 1.85-1.26 0-.73-.55-1.14-1.96-1.64-1.94-.67-3.2-1.75-3.2-3.44 0-1.99 1.66-3.51 4.41-3.51 1.31 0 2.28.28 2.98.59l-.59 2.13c-.47-.23-1.3-.55-2.44-.55s-1.7.52-1.7 1.12c0 .74.66 1.07 2.16 1.64 2.07.75 3.04 1.82 3.04 3.46 0 1.96-1.51 3.62-4.71 3.62-1.33 0-2.65-.35-3.3-.71l.54-2.18zM13.23 21.16 9.5 9.49h2.89l1.42 4.93c.4 1.38.76 2.72 1.04 4.17h.05c.29-1.4.66-2.79 1.06-4.12l1.49-4.98h2.8l-3.93 11.66h-3.09zM31.09 20.62c-.81.28-2.35.66-3.89.66-2.13 0-3.67-.54-4.74-1.57-1.07-1-1.66-2.53-1.64-4.24.02-3.88 2.84-6.09 6.66-6.09 1.5 0 2.67.29 3.24.57l-.55 2.11c-.64-.28-1.44-.5-2.72-.5-2.2 0-3.86 1.25-3.86 3.77 0 2.41 1.51 3.82 3.67 3.82.61 0 1.09-.07 1.3-.17v-2.44h-1.8v-2.06h4.34v6.14z"/></svg>